:SAMPLES-PER-SECOND 30
:FULLY-SPECIFIED
:DEGREES
200
root  44.8881 36.641 25.6098 68.0275 85.1749 25.3375
RightUpLeg  -75.2925 -13.4571 19.1056
RightLeg  39.206 -2.23823 -2.24145
RightFoot  -6.26526 0.390825 -9.73634
RightToes  0.00048216 0.542163 -0.142577
Spine  72.0697 -5.80695 6.31336
Spine1  3.66678 0.268213 -7.77071
HEad  -43.0752 -4.45185 -3.29612
LeftShoulder1  5.83267 -26.6822 -12.0656
LeftArm  -82.2729 -63.283 18.1959
LeftForeArm  15.7869 -22.3687 -3.74642
LeftHand  -0.25398 0.0180481 5.50724
RightShoulder  2.65249 15.1258 6.58822
RightArm  -72.6147 50.2393 -18.884
RightForeArm  -19.2003 22.3463 5.60687
RightHand  -3.96965 12.6676 -25.3501
LeftUpLeg  -73.9307 14.3446 -21.8237
LeftLeg  36.0971 1.97658 1.91674
LeftFoot  -5.90193 -0.204217 5.04585
LeftToes  1.06244e-005 4.65856e-005 -8.18505e-006
201
root  44.9649 36.7009 25.6372 69.2513 85.3148 27.3506
RightUpLeg  -74.2734 -13.7794 18.7212
RightLeg  39.1692 -2.40999 -2.38847
RightFoot  -6.52865 0.354876 -9.46122
RightToes  0.00048216 0.542163 -0.142577
Spine  71.9113 -5.87176 6.38177
Spine1  4.76284 0.321809 -7.75975
HEad  -43.4503 -4.25748 -2.99721
LeftShoulder1  5.46507 -26.4328 -10.8989
LeftArm  -79.3879 -64.1152 16.1584
LeftForeArm  23.8197 -25.1111 -4.14074
LeftHand  -0.25398 0.0180481 5.50724
RightShoulder  2.59528 14.7399 6.57624
RightArm  -71.0666 50.8919 -17.0208
RightForeArm  -17.7057 26.0286 6.45898
RightHand  -7.20443 18.2131 -34.8907
LeftUpLeg  -72.8538 14.5483 -21.5254
LeftLeg  35.9541 1.99203 1.92018
LeftFoot  -6.04784 -0.190989 4.91846
LeftToes  1.06244e-005 4.65856e-005 -8.18505e-006
202
root  45.0301 36.7552 25.6516 69.6349 85.3867 28.5872
RightUpLeg  -73.2095 -14.0647 18.3174
RightLeg  39.1685 -2.56981 -2.52773
RightFoot  -6.79813 0.321591 -9.23475
RightToes  0.00048216 0.542163 -0.142577
Spine  71.948 -5.84278 6.46073
Spine1  5.56799 0.431729 -7.57093
HEad  -43.431 -4.44532 -2.87898
LeftShoulder1  5.31044 -26.3789 -10.3652
LeftArm  -77.1042 -65.2847 14.1319
LeftForeArm  34.4049 -27.8829 -4.16086
LeftHand  -0.25398 0.0180481 5.50724
RightShoulder  2.51674 14.3863 6.40098
RightArm  -69.7305 51.7313 -15.7943
RightForeArm  -8.96157 28.5074 6.63055
RightHand  -9.14984 21.0231 -39.1494
LeftUpLeg  -71.7481 14.845 -21.3097
LeftLeg  35.7851 2.02316 1.9341
LeftFoot  -6.19865 -0.195147 5.17488
LeftToes  1.06244e-005 4.65856e-005 -8.18505e-006
203
root  45.0724 36.7613 25.6615 69.5457 85.465 28.8344
RightUpLeg  -72.7594 -14.0364 18.0486
RightLeg  39.2887 -2.78539 -2.72677
RightFoot  -7.03102 0.29836 -9.16049
RightToes  0.00048216 0.542163 -0.142577
Spine  71.7109 -5.73572 6.61192
Spine1  5.82561 0.569239 -7.41849
HEad  -42.9558 -4.88079 -2.95103
LeftShoulder1  5.27837 -26.4735 -10.1836
LeftArm  -75.7171 -66.6856 12.5564
LeftForeArm  44.0859 -29.0973 -3.93803
LeftHand  -0.25398 0.0180481 5.50724
RightShoulder  2.44287 14.315 5.99926
RightArm  -68.2657 52.8837 -15.3112
RightForeArm  2.30754 28.0265 5.94144
RightHand  -8.45037 19.7625 -37.9683
LeftUpLeg  -71.3128 14.9086 -21.0535
LeftLeg  35.8305 2.03404 1.94489
LeftFoot  -6.42109 -0.189348 5.3034
LeftToes  1.06244e-005 4.65856e-005 -8.18505e-006
204
root  45.0927 36.7255 25.6716 69.9602 85.5401 29.1962
RightUpLeg  -72.8612 -13.8616 17.8938
RightLeg  39.5724 -2.99751 -2.94036
RightFoot  -7.25454 0.27792 -9.13228
RightToes  0.00048216 0.542163 -0.142577
Spine  71.3034 -5.69678 6.79822
Spine1  5.80734 0.660865 -7.54194
HEad  -42.6537 -5.24234 -2.90708
LeftShoulder1  5.15217 -26.7036 -9.57091
LeftArm  -74.4321 -68.0547 12.3969
LeftForeArm  49.2402 -27.9702 -3.45757
LeftHand  -0.25398 0.0180481 5.50724
RightShoulder  2.37024 14.3655 5.49718
RightArm  -66.8582 54.6299 -15.6212
RightForeArm  8.14062 24.5865 4.83212
RightHand  -7.43641 17.9212 -36.2721
LeftUpLeg  -71.398 14.668 -20.7242
LeftLeg  36.1133 2.13076 2.03744
LeftFoot  -6.62427 -0.173311 5.17387
LeftToes  1.06244e-005 4.65856e-005 -8.18505e-006
205
root  45.1031 36.6828 25.6839 70.3781 85.5281 29.5708
RightUpLeg  -73.0332 -13.7189 17.7385
RightLeg  39.9194 -3.13506 -3.09784
RightFoot  -7.45997 0.257438 -9.05474
RightToes  0.00048216 0.542163 -0.142577
Spine  71.0896 -5.69572 6.9157
Spine1  5.85838 0.762239 -7.84178
HEad  -42.9349 -5.49159 -2.58932
LeftShoulder1  4.88996 -26.9183 -8.47856
LeftArm  -73.7306 -69.2829 13.4484
LeftForeArm  50.3898 -25.8079 -2.9576
LeftHand  -0.25398 0.0180481 5.50724
RightShoulder  2.25942 14.2686 4.87595
RightArm  -66.632 56.5506 -16.1656
RightForeArm  7.55977 20.2578 3.78165
RightHand  -8.16799 18.9942 -37.8585
LeftUpLeg  -71.5349 14.4167 -20.4642
LeftLeg  36.4719 2.35917 2.24104
LeftFoot  -6.75574 -0.160896 5.03359
LeftToes  1.06244e-005 4.65856e-005 -8.18505e-006
206
root  45.1067 36.6461 25.6993 70.1925 85.4435 29.4345
RightUpLeg  -73.1141 -13.5696 17.5388
RightLeg  40.263 -3.23434 -3.22353
RightFoot  -7.58544 0.244128 -8.97906
RightToes  0.00048216 0.542163 -0.142577
Spine  71.0943 -5.65429 6.9879
Spine1  6.08283 0.97635 -8.12271
HEad  -43.4911 -5.79326 -2.14101
LeftShoulder1  4.66079 -26.7512 -7.74012
LeftArm  -74.8885 -70.4303 14.3148
LeftForeArm  50.4553 -24.9155 -2.77534
LeftHand  -0.25398 0.0180481 5.50724
RightShoulder  2.17634 14.099 4.48408
RightArm  -68.4054 57.6668 -16.3835
RightForeArm  7.10293 17.6568 2.89366
RightHand  -9.88741 21.8536 -40.7666
LeftUpLeg  -71.6114 14.2979 -20.3045
LeftLeg  36.8128 2.61083 2.46707
LeftFoot  -6.86882 -0.152196 4.94869
LeftToes  1.06244e-005 4.65856e-005 -8.18505e-006
207
root  45.0905 36.6066 25.7134 70.5204 85.387 29.8984
RightUpLeg  -73.1662 -13.4268 17.2648
RightLeg  40.6672 -3.38957 -3.40985
RightFoot  -7.66371 0.236522 -8.9504
RightToes  0.00048216 0.542163 -0.142577
Spine  71.1943 -5.68799 7.15521
Spine1  6.3642 1.23768 -8.39566
HEad  -43.8003 -6.19621 -1.75599
LeftShoulder1  4.60116 -26.0845 -7.9145
LeftArm  -77.5163 -71.4634 14.8598
LeftForeArm  50.2532 -25.7801 -2.95925
LeftHand  -0.25398 0.0180481 5.50724
RightShoulder  2.27359 14.0784 5.12247
RightArm  -71.06 57.716 -16.8431
RightForeArm  9.92847 17.4449 2.42777
RightHand  -10.7408 23.3564 -41.8303
LeftUpLeg  -71.613 14.1254 -20.0854
LeftLeg  37.1467 2.84041 2.67999
LeftFoot  -6.957 -0.14521 4.87306
LeftToes  1.06244e-005 4.65856e-005 -8.18505e-006
